# Tiled2Unity generated file. Do not modify by hand.
# Wavefront file for 'JoustLv1_mesh_0004.obj'

# Vertices (Count = 8)
v -208 -48 0
v -224 -48 0
v -224 -32 0
v -208 -32 0
v -224 -48 0
v -240 -48 0
v -240 -32 0
v -224 -32 0

# Texture cooridinates (Count = 6)
vt 0.6722689 0.5076923
vt 0.7394958 0.5076923
vt 0.7394958 0.5897436
vt 0.6722689 0.5897436
vt 0.8067227 0.5076923
vt 0.8067227 0.5897436

# Normal
vn 0 0 -1

# Mesh description
g JoustLv1_mesh_0004

# Faces
f 1/1/1 2/2/1 3/3/1 4/4/1
f 5/2/1 6/5/1 7/6/1 8/3/1

