# Tiled2Unity generated file. Do not modify by hand.
# Wavefront file for 'JoustLv1_mesh_0001.obj'

# Vertices (Count = 56)
v 0 -192 0
v -16 -192 0
v -16 -176 0
v 0 -176 0
v -16 -192 0
v -32 -192 0
v -32 -176 0
v -16 -176 0
v -32 -192 0
v -48 -192 0
v -48 -176 0
v -32 -176 0
v -48 -192 0
v -64 -192 0
v -64 -176 0
v -48 -176 0
v -192 -192 0
v -208 -192 0
v -208 -176 0
v -192 -176 0
v -208 -192 0
v -224 -192 0
v -224 -176 0
v -208 -176 0
v -224 -192 0
v -240 -192 0
v -240 -176 0
v -224 -176 0
v 0 -208 0
v -16 -208 0
v -16 -192 0
v 0 -192 0
v -16 -208 0
v -32 -208 0
v -32 -192 0
v -16 -192 0
v -32 -208 0
v -48 -208 0
v -48 -192 0
v -32 -192 0
v -48 -208 0
v -64 -208 0
v -64 -192 0
v -48 -192 0
v -192 -208 0
v -208 -208 0
v -208 -192 0
v -192 -192 0
v -208 -208 0
v -224 -208 0
v -224 -192 0
v -208 -192 0
v -224 -208 0
v -240 -208 0
v -240 -192 0
v -224 -192 0

# Texture cooridinates (Count = 27)
vt 0.5378152 0.09743589
vt 0.605042 0.09743589
vt 0.605042 0.1794872
vt 0.5378152 0.1794872
vt 0.6722689 0.09743589
vt 0.6722689 0.1794872
vt 0.7394958 0.09743589
vt 0.7394958 0.1794872
vt 0.8067227 0.09743589
vt 0.8067227 0.1794872
vt 0.1344538 0.09743589
vt 0.2016807 0.09743589
vt 0.2016807 0.1794872
vt 0.1344538 0.1794872
vt 0.2689076 0.09743589
vt 0.2689076 0.1794872
vt 0.3361345 0.09743589
vt 0.3361345 0.1794872
vt 0.5378152 0.01538461
vt 0.605042 0.01538461
vt 0.6722689 0.01538461
vt 0.7394958 0.01538461
vt 0.8067227 0.01538461
vt 0.1344538 0.01538461
vt 0.2016807 0.01538461
vt 0.2689076 0.01538461
vt 0.3361345 0.01538461

# Normal
vn 0 0 -1

# Mesh description
g JoustLv1_mesh_0001

# Faces
f 1/1/1 2/2/1 3/3/1 4/4/1
f 5/2/1 6/5/1 7/6/1 8/3/1
f 9/5/1 10/7/1 11/8/1 12/6/1
f 13/7/1 14/9/1 15/10/1 16/8/1
f 17/11/1 18/12/1 19/13/1 20/14/1
f 21/12/1 22/15/1 23/16/1 24/13/1
f 25/15/1 26/17/1 27/18/1 28/16/1
f 29/19/1 30/20/1 31/2/1 32/1/1
f 33/20/1 34/21/1 35/5/1 36/2/1
f 37/21/1 38/22/1 39/7/1 40/5/1
f 41/22/1 42/23/1 43/9/1 44/7/1
f 45/24/1 46/25/1 47/12/1 48/11/1
f 49/25/1 50/26/1 51/15/1 52/12/1
f 53/26/1 54/27/1 55/17/1 56/15/1

