# Tiled2Unity generated file. Do not modify by hand.
# Wavefront file for 'JoustLv1_mesh_0003.obj'

# Vertices (Count = 12)
v 0 -64 0
v -16 -64 0
v -16 -48 0
v 0 -48 0
v -16 -64 0
v -32 -64 0
v -32 -48 0
v -16 -48 0
v -32 -64 0
v -48 -64 0
v -48 -48 0
v -32 -48 0

# Texture cooridinates (Count = 8)
vt 0.2689076 0.7538462
vt 0.3361345 0.7538462
vt 0.3361345 0.8358974
vt 0.2689076 0.8358974
vt 0.4033614 0.7538462
vt 0.4033614 0.8358974
vt 0.4705882 0.7538462
vt 0.4705882 0.8358974

# Normal
vn 0 0 -1

# Mesh description
g JoustLv1_mesh_0003

# Faces
f 1/1/1 2/2/1 3/3/1 4/4/1
f 5/2/1 6/5/1 7/6/1 8/3/1
f 9/5/1 10/7/1 11/8/1 12/6/1

